<svg width="12" height="14" viewBox="0 0 12 14" fill="none" xmlns="http://www.w3.org/2000/svg">
<path d="M0 2.7549V10.9202C0 12.0919 0 12.6776 0.204119 13.0361C0.582446 13.7006 1.41157 14.0825 2.26367 13.9849C2.7234 13.9322 3.28964 13.6073 4.4221 12.9573L4.42481 12.9558C4.87368 12.6982 5.09815 12.5694 5.33295 12.4979C5.76421 12.3667 6.23476 12.3667 6.66602 12.4979C6.90129 12.5695 7.12664 12.6988 7.57732 12.9575C8.70978 13.6074 9.27665 13.9321 9.73638 13.9848C10.5885 14.0824 11.4176 13.7006 11.7959 13.0361C12 12.6777 12 12.0917 12 10.9202V2.75207C12 1.78971 12 1.30781 11.7822 0.939876C11.5905 0.615917 11.2837 0.35272 10.9074 0.187655C10.4796 0 9.9203 0 8.8002 0H3.2002C2.08009 0 1.51962 0 1.0918 0.187655C0.715473 0.35272 0.409734 0.615917 0.217987 0.939876C0 1.30817 0 1.79065 0 2.7549Z" fill="#7F81FF"/>
</svg>
