<svg width="19" height="16" viewBox="0 0 19 16" fill="none" xmlns="http://www.w3.org/2000/svg">
<path d="M3.81076 14.1733L5.1654 13.1645L5.17536 13.1574C5.45777 12.947 5.60028 12.8409 5.75927 12.7653C5.90192 12.6975 6.05403 12.6481 6.21094 12.6181C6.3878 12.5843 6.57203 12.5843 6.94184 12.5843H14.6583C15.652 12.5843 16.1494 12.5843 16.5294 12.4041C16.8639 12.2454 17.136 11.992 17.3064 11.6806C17.5 11.327 17.5 10.8644 17.5 9.93941V3.64528C17.5 2.72026 17.5 2.25706 17.3064 1.90341C17.136 1.59202 16.8633 1.33903 16.5288 1.18037C16.1485 1 15.6514 1 14.6557 1H4.34462C3.34897 1 2.85077 1 2.47049 1.18037C2.13598 1.33903 1.86421 1.59202 1.69377 1.90341C1.5 2.25741 1.5 2.72117 1.5 3.648V13.1397C1.5 14.0215 1.5 14.4623 1.69418 14.6888C1.86306 14.8857 2.11905 15.0003 2.38976 15C2.70102 14.9997 3.07106 14.7241 3.81076 14.1733Z" stroke="#D9D9D9" stroke-width="2" stroke-linecap="round" stroke-linejoin="round"/>
</svg>
