<svg width="117" height="117" viewBox="0 0 117 117" fill="none" xmlns="http://www.w3.org/2000/svg">
<circle cx="58.5" cy="58.5" r="58.5" fill="#D9D9D9"/>
<mask id="mask0_136_2582" style="mask-type:alpha" maskUnits="userSpaceOnUse" x="0" y="0" width="117" height="117">
<circle cx="58.5" cy="58.5" r="58.5" fill="#D9D9D9"/>
</mask>
<g mask="url(#mask0_136_2582)">
<path d="M99.0787 86.0022C99.0787 108.166 81.1118 122.108 58.9485 122.108C36.7851 122.108 18.8182 108.166 18.8182 86.0022C18.8182 63.8389 36.7851 45.8719 58.9485 45.8719C81.1118 45.8719 99.0787 63.8389 99.0787 86.0022Z" fill="#EAEAEA"/>
<ellipse cx="34.9152" cy="112.235" rx="14.1504" ry="14.0755" fill="#EAEAEA"/>
<ellipse cx="59.1729" cy="118.524" rx="14.1504" ry="14.0755" fill="#EAEAEA"/>
<ellipse cx="84.7786" cy="112.235" rx="14.1504" ry="14.0755" fill="#EAEAEA"/>
<circle cx="84.973" cy="39.6615" r="4.56187" fill="#EAEAEA"/>
<path d="M60.9701 44.7546C52.4621 45.6949 43.3383 47.4056 33.6443 54.8192C50.5649 53.3217 71.5349 53.0394 85.5356 55.9593C80.1865 51.6441 79.1794 49.2272 79.5204 47.6607C79.8148 46.308 79.7283 44.88 78.3611 44.663C74.1427 43.9935 67.3011 44.055 60.9701 44.7546Z" fill="#EAEAEA"/>
</g>
</svg>
