<svg width="23" height="24" viewBox="0 0 23 24" fill="none" xmlns="http://www.w3.org/2000/svg">
<path d="M4.11827e-07 9.83897C1.51246e-07 9.53821 0.135371 9.25341 0.368601 9.06351L10.8686 0.514105C11.2363 0.214715 11.7637 0.214714 12.1314 0.514105L22.6314 9.06351C22.8646 9.25341 23 9.5382 23 9.83897L23 23C23 23.5523 22.5523 24 22 24H15C14.4477 24 14 23.5523 14 23V16.5C14 15.9477 13.5523 15.5 13 15.5H10C9.44771 15.5 9 15.9477 9 16.5V23C9 23.5523 8.55229 24 8 24H1.00001C0.447726 24 1.2293e-05 23.5523 1.18145e-05 23L4.11827e-07 9.83897Z" fill="#7F81FF"/>
</svg>
