<svg width="119" height="128" viewBox="0 0 119 128" fill="none" xmlns="http://www.w3.org/2000/svg">
<path d="M61.5 0.74823C66.4706 0.748234 70.5 4.77767 70.5 9.74823V51.4338C70.5 52.5383 71.3954 53.4338 72.5 53.4338H110C114.971 53.4338 119 57.4632 119 62.4338C119 67.4042 114.97 71.4338 110 71.4338H85.9413C84.1675 71.4338 83.2716 73.5716 84.5155 74.8362L107.521 98.2258C111.006 101.77 111.135 107.637 107.811 111.332C104.486 115.027 98.9649 115.149 95.4795 111.606L73.9259 89.6914C72.6708 88.4154 70.5 89.304 70.5 91.0938V118.237C70.5 123.208 66.4706 127.237 61.5 127.237C56.5294 127.237 52.5 123.208 52.5 118.237V89.6269C52.5 87.8156 50.2845 86.9372 49.0433 88.2565L27.167 111.51C23.7611 115.13 18.2389 115.13 14.833 111.51C11.4272 107.89 11.4271 102.02 14.833 98.3996L37.0313 74.8042C38.2322 73.5277 37.3272 71.4338 35.5746 71.4338H9C4.02952 71.4338 0.000127821 67.4042 0 62.4338C0 57.4632 4.02944 53.4338 9 53.4338H33.4913C35.2652 53.4338 36.1611 51.296 34.9172 50.0313L14.9795 29.7599C11.4941 26.2162 11.3646 20.3483 14.6895 16.6535C18.0144 12.9589 23.5351 12.8364 27.0205 16.3801L49.0741 38.8022C50.3292 40.0782 52.5 39.1896 52.5 37.3998V9.74823C52.5 4.77767 56.5294 0.74823 61.5 0.74823Z" fill="url(#paint0_radial_136_2639)"/>
<circle cx="100" cy="20" r="9" fill="#3D57FE"/>
<defs>
<radialGradient id="paint0_radial_136_2639" cx="0" cy="0" r="1" gradientUnits="userSpaceOnUse" gradientTransform="translate(59.5 63.9929) rotate(90) scale(83.7061 78.75)">
<stop stop-color="#3D57FE"/>
<stop offset="0.5" stop-color="#7F81FF"/>
<stop offset="1" stop-color="#7BEAD7"/>
</radialGradient>
</defs>
</svg>
