<svg width="20" height="23" viewBox="0 0 20 23" fill="none" xmlns="http://www.w3.org/2000/svg">
<path d="M19 0C19.5523 8.05325e-09 20 0.447715 20 1V22C20 22.5523 19.5523 23 19 23H1C0.447715 23 0 22.5523 0 22V1C1.00666e-08 0.447715 0.447715 1.28851e-07 1 0H19ZM5.07422 9.33301C4.52206 9.33301 4.07442 9.78089 4.07422 10.333C4.07422 10.8853 4.52193 11.333 5.07422 11.333H14.9258C15.478 11.3329 15.9258 10.8853 15.9258 10.333C15.9256 9.78093 15.4779 9.33307 14.9258 9.33301H5.07422ZM5.07422 4.33301C4.52206 4.33301 4.07442 4.78089 4.07422 5.33301C4.07422 5.88529 4.52193 6.33301 5.07422 6.33301H14.9258C15.478 6.33294 15.9258 5.88525 15.9258 5.33301C15.9256 4.78093 15.4779 4.33307 14.9258 4.33301H5.07422Z" fill="#7F81FF"/>
</svg>
